<svg width="187" height="187" viewBox="0 0 187 187" fill="none" xmlns="http://www.w3.org/2000/svg">
<path d="M70.615 140.944C70.615 140.944 63.8611 144.875 75.4218 146.205C89.4302 147.802 96.5845 147.572 112.019 144.649C112.019 144.649 116.077 147.193 121.747 149.399C87.1478 164.231 43.4393 148.539 70.615 140.944Z" fill="#5382A1"/>
<path d="M66.3867 121.593C66.3867 121.593 58.8112 127.202 70.3812 128.4C85.3413 129.94 97.1575 130.068 117.602 126.127C117.602 126.127 120.432 128.998 124.879 130.565C83.0433 142.796 36.4485 131.532 66.3857 121.593" fill="#5382A1"/>
<path d="M102.03 88.7648C110.555 98.5863 99.788 107.42 99.788 107.42C99.788 107.42 121.44 96.2421 111.497 82.2445C102.208 69.1942 95.0901 62.7098 133.64 40.3516C133.64 40.3516 73.1312 55.4627 102.03 88.7648Z" fill="#E76F00"/>
<path d="M147.79 155.261C147.79 155.261 152.79 159.381 142.289 162.569C122.315 168.619 59.1602 170.446 41.6174 162.81C35.3124 160.067 47.1389 156.259 50.8588 155.456C54.7387 154.616 56.956 154.775 56.956 154.775C49.9426 149.831 11.6234 164.473 37.4923 168.67C108.037 180.109 166.09 163.516 147.79 155.261" fill="#5382A1"/>
<path d="M73.8631 101.541C73.8631 101.541 41.7392 109.172 62.4874 111.941C71.2474 113.118 88.7133 112.852 104.977 111.486C118.272 110.365 131.624 107.98 131.624 107.98C131.624 107.98 126.936 109.991 123.543 112.304C90.919 120.887 27.9023 116.895 46.0436 108.118C61.388 100.702 73.8631 101.541 73.8631 101.541Z" fill="#5382A1"/>
<path d="M131.49 133.755C164.652 116.523 149.315 99.9611 138.614 102.193C135.994 102.741 134.822 103.211 134.822 103.211C134.822 103.211 135.794 101.686 137.657 101.026C158.828 93.5846 175.112 122.982 130.82 134.625C130.82 134.625 131.337 134.164 131.49 133.755Z" fill="#5382A1"/>
<mask id="mask0_201_316" style="mask-type:luminance" maskUnits="userSpaceOnUse" x="70" y="4" width="47" height="98">
<path d="M70.635 4.26367H116.279V101.231H70.635V4.26367Z" fill="white"/>
</mask>
<g mask="url(#mask0_201_316)">
<path d="M111.496 4.24756C111.496 4.24756 129.862 22.6201 94.0752 50.8719C65.3822 73.5329 87.5355 86.4559 94.065 101.221C77.3151 86.1076 65.0232 72.8012 73.2696 60.4209C85.3755 42.2436 118.905 33.4312 111.496 4.24707" fill="#E76F00"/>
</g>
<path d="M77.1216 180.457C108.953 182.494 157.83 179.326 158.986 164.264C158.986 164.264 156.76 169.97 132.682 174.504C105.513 179.617 72.0039 179.024 52.1326 175.743C52.1326 175.743 56.2004 179.111 77.1201 180.457" fill="#5382A1"/>
</svg>
