<svg width="286" height="155" viewBox="0 0 286 155" fill="none" xmlns="http://www.w3.org/2000/svg">
<path d="M27.776 70.408L55.296 101H43.52L16 70.408H15.232V101H6.4V16.008H28.16C33.1093 16.008 37.632 17.2453 41.728 19.72C45.9093 22.1093 49.1947 25.3947 51.584 29.576C54.0587 33.7573 55.296 38.3227 55.296 43.272C55.296 48.2213 54.0587 52.7867 51.584 56.968C49.1947 61.064 45.9093 64.3493 41.728 66.824C37.632 69.2133 33.1093 70.408 28.16 70.408H27.776ZM15.232 24.712V61.704H28.16C31.488 61.704 34.56 60.8933 37.376 59.272C40.192 57.5653 42.4107 55.304 44.032 52.488C45.7387 49.672 46.592 46.6 46.592 43.272C46.592 39.944 45.7387 36.872 44.032 34.056C42.4107 31.1547 40.192 28.8933 37.376 27.272C34.56 25.5653 31.488 24.712 28.16 24.712H15.232ZM126.26 38.664V101H117.428V89.224C111.54 97.5013 103.689 101.64 93.876 101.64C87.988 101.64 82.5693 100.232 77.62 97.416C72.6707 94.5147 68.7453 90.5893 65.844 85.64C63.028 80.6907 61.62 75.3147 61.62 69.512C61.62 63.624 63.028 58.2053 65.844 53.256C68.7453 48.3067 72.6707 44.424 77.62 41.608C82.5693 38.7067 87.988 37.256 93.876 37.256C99.9347 37.256 104.884 38.536 108.724 41.096C112.649 43.5707 115.551 46.2587 117.428 49.16V38.664H126.26ZM93.876 92.936C98.1427 92.936 102.068 91.912 105.652 89.864C109.236 87.7307 112.052 84.872 114.1 81.288C116.233 77.704 117.3 73.7787 117.3 69.512C117.3 65.2453 116.233 61.32 114.1 57.736C112.052 54.0667 109.236 51.208 105.652 49.16C102.068 47.0267 98.1427 45.96 93.876 45.96C89.6093 45.96 85.6413 47.0267 81.972 49.16C78.388 51.208 75.5293 54.0667 73.396 57.736C71.348 61.32 70.324 65.2453 70.324 69.512C70.324 73.7787 71.348 77.704 73.396 81.288C75.5293 84.872 78.388 87.7307 81.972 89.864C85.6413 91.912 89.6093 92.936 93.876 92.936ZM169.105 23.944C165.35 23.944 162.065 25.224 159.249 27.784C156.518 30.2587 154.94 33.3307 154.513 37H169.105V45.704H154.385V101H145.681V45.704H139.025V37H145.681C145.937 32.9893 147.132 29.32 149.265 25.992C151.484 22.664 154.3 20.0613 157.713 18.184C161.212 16.2213 165.009 15.24 169.105 15.24V23.944ZM237.635 38.664V101H228.803V89.224C222.915 97.5013 215.064 101.64 205.251 101.64C199.363 101.64 193.944 100.232 188.995 97.416C184.046 94.5147 180.12 90.5893 177.219 85.64C174.403 80.6907 172.995 75.3147 172.995 69.512C172.995 63.624 174.403 58.2053 177.219 53.256C180.12 48.3067 184.046 44.424 188.995 41.608C193.944 38.7067 199.363 37.256 205.251 37.256C211.31 37.256 216.259 38.536 220.099 41.096C224.024 43.5707 226.926 46.2587 228.803 49.16V38.664H237.635ZM205.251 92.936C209.518 92.936 213.443 91.912 217.027 89.864C220.611 87.7307 223.427 84.872 225.475 81.288C227.608 77.704 228.675 73.7787 228.675 69.512C228.675 65.2453 227.608 61.32 225.475 57.736C223.427 54.0667 220.611 51.208 217.027 49.16C213.443 47.0267 209.518 45.96 205.251 45.96C200.984 45.96 197.016 47.0267 193.347 49.16C189.763 51.208 186.904 54.0667 184.771 57.736C182.723 61.32 181.699 65.2453 181.699 69.512C181.699 73.7787 182.723 77.704 184.771 81.288C186.904 84.872 189.763 87.7307 193.347 89.864C197.016 91.912 200.984 92.936 205.251 92.936Z" fill="white"/>
<path d="M264.736 73.856C269.088 73.856 272.8 75.392 275.872 78.464C278.944 81.4507 280.48 85.12 280.48 89.472C280.48 93.824 278.944 97.536 275.872 100.608C272.8 103.595 269.088 105.088 264.736 105.088C260.384 105.088 256.672 103.595 253.6 100.608C250.613 97.536 249.12 93.824 249.12 89.472C249.12 85.12 250.613 81.4507 253.6 78.464C256.672 75.392 260.384 73.856 264.736 73.856Z" fill="#9F3584"/>
</svg>
